<svg xmlns="http://www.w3.org/2000/svg"  viewBox="0 0 48 48" width="48px" height="48px" baseProfile="basic"><linearGradient id="pQcjaGc72bUJv4Q1htOXba" x1="-5.862" x2="46.644" y1="-5.864" y2="46.642" gradientUnits="userSpaceOnUse"><stop offset="0" stop-color="#262626" stop-opacity="0"/><stop offset="1" stop-color="#262626" stop-opacity=".8"/></linearGradient><path fill="url(#pQcjaGc72bUJv4Q1htOXba)" d="M44,24c0,10.13-7.52,18.5-17.29,19.81V29h2.49c1.48,0,2.74-1.08,2.97-2.54l0.53-3.42h-5.99	v-1.87c0-2.18,0.71-4.12,2.75-4.12h1.29c1.1,0,2-0.9,2-2v-2.59c-0.58-0.08-1.8-0.25-4.11-0.25c-4.81,0-7.63,2.54-7.63,8.34v2.49	h-1.95c-1.66,0-3,1.34-3,3V29h4.95v14.78C11.38,42.33,4,34.03,4,24C4,12.95,12.95,4,24,4S44,12.95,44,24z"/><linearGradient id="pQcjaGc72bUJv4Q1htOXbb" x1="15.247" x2="73.864" y1="14.257" y2="84.113" gradientUnits="userSpaceOnUse"><stop offset="0" stop-color="#262626" stop-opacity="0"/><stop offset="1" stop-color="#262626" stop-opacity=".8"/></linearGradient><path fill="url(#pQcjaGc72bUJv4Q1htOXbb)" d="M26.71,21.17v1.87h5.99l-0.53,3.42C31.94,27.92,30.68,29,29.2,29h-2.49v14.81	C25.82,43.94,24.92,44,24,44c-1.02,0-2.02-0.08-2.99-0.22V29h-4.95v-2.96c0-1.66,1.34-3,3-3h1.95v-2.49c0-5.8,2.82-8.34,7.63-8.34	c2.31,0,3.53,0.17,4.11,0.25v2.59c0,1.1-0.9,2-2,2h-1.29C27.42,17.05,26.71,18.99,26.71,21.17z"/></svg>